<svg id="Next" xmlns="http://www.w3.org/2000/svg" width="38" height="38" viewBox="0 0 38 38">
  <defs>
    <style>
      .cls-1 {
        fill: #f2d800;
      }

      .cls-2 {
        fill: #f7f7f7;
        fill-rule: evenodd;
      }
    </style>
  </defs>
  <rect id="Button" class="cls-1" width="38" height="38"/>
  <path id="Arrow_right" data-name="Arrow right" class="cls-2" d="M1494.5,510.241l5.14-5.239-5.2-5.308h0a1.014,1.014,0,0,1-.28-0.695,0.991,0.991,0,0,1,.98-1,0.948,0.948,0,0,1,.68.281h0l5.88,6h0a1.027,1.027,0,0,1,.3.719v0a1.027,1.027,0,0,1-.3.72h0l-5.88,6v0a0.967,0.967,0,0,1-.68.278,0.99,0.99,0,0,1-.98-1A1.038,1.038,0,0,1,1494.5,510.241ZM1486.98,506h12.41a1,1,0,0,0,0-2h-12.41A1,1,0,0,0,1486.98,506Z" transform="translate(-1475 -486)"/>
</svg>
