<svg id="Button" xmlns="http://www.w3.org/2000/svg" width="22" height="22" viewBox="0 0 22 22">
  <defs>
    <style>
      .cls-1 {
        fill: #00b0ff;
      }

      .cls-2 {
        fill: #fff;
        fill-rule: evenodd;
      }
    </style>
  </defs>
  <circle id="Button-2" data-name="Button" class="cls-1" cx="11" cy="11" r="11"/>
  <path id="Arrow" class="cls-2" d="M1334.38,4500.38l3.85,4.12-3.9,4.17h0a0.791,0.791,0,0,0-.21.54,0.763,0.763,0,0,0,.74.79,0.7,0.7,0,0,0,.51-0.22h0l4.41-4.71h0a0.877,0.877,0,0,0,.22-0.57h0a0.837,0.837,0,0,0-.22-0.57h0l-4.41-4.71h0a0.721,0.721,0,0,0-.51-0.22,0.763,0.763,0,0,0-.74.79A0.792,0.792,0,0,0,1334.38,4500.38Zm-5.65,3.33h9.31a0.792,0.792,0,0,1,0,1.58h-9.31A0.792,0.792,0,0,1,1328.73,4503.71Z" transform="translate(-1323 -4493)"/>
</svg>
