<svg xmlns="http://www.w3.org/2000/svg" width="13" height="13" viewBox="0 0 13 13">
  <defs>
    <style>
      .cls-1 {
        fill-rule: evenodd;
      }
    </style>
  </defs>
  <path id="X_Icon" data-name="X Icon" class="cls-1" d="M662.22,1768.5l4.651-4.65a0.412,0.412,0,0,0,0-.58l-1.147-1.14a0.4,0.4,0,0,0-.574,0l-4.651,4.65-4.65-4.65a0.4,0.4,0,0,0-.574,0l-1.147,1.14a0.413,0.413,0,0,0,0,.58l4.65,4.65-4.65,4.65a0.4,0.4,0,0,0,0,.57l1.147,1.15a0.4,0.4,0,0,0,.574,0l4.65-4.65,4.651,4.65a0.4,0.4,0,0,0,.574,0l1.147-1.15a0.4,0.4,0,0,0,.119-0.28,0.4,0.4,0,0,0-.119-0.29Z" transform="translate(-654 -1762)"/>
</svg>
